<svg width="24" height="25" viewBox="0 0 24 25" fill="none" xmlns="http://www.w3.org/2000/svg">
<rect width="24" height="24" transform="translate(0 0.5)" fill="white"/>
<path d="M15.7549 14.755H14.9649L14.6849 14.485C15.6649 13.345 16.2549 11.865 16.2549 10.255C16.2549 6.665 13.3449 3.755 9.75488 3.755C6.16488 3.755 3.25488 6.665 3.25488 10.255C3.25488 13.845 6.16488 16.755 9.75488 16.755C11.3649 16.755 12.8449 16.165 13.9849 15.185L14.2549 15.465V16.255L19.2549 21.245L20.7449 19.755L15.7549 14.755ZM9.75488 14.755C7.26488 14.755 5.25488 12.745 5.25488 10.255C5.25488 7.765 7.26488 5.755 9.75488 5.755C12.2449 5.755 14.2549 7.765 14.2549 10.255C14.2549 12.745 12.2449 14.755 9.75488 14.755Z" fill="#ED4D1B"/>
</svg>
