<svg width="29" height="29" viewBox="0 0 29 29" fill="none" xmlns="http://www.w3.org/2000/svg">
<path d="M13.171 2.53749C7.61269 3.14166 3.14186 7.61249 2.53769 13.05C1.93353 18.7292 5.19603 23.8042 10.1502 25.7375C10.5127 25.8583 10.8752 25.6167 10.8752 25.1333V23.2C10.8752 23.2 10.3919 23.3208 9.78769 23.3208C8.09603 23.3208 7.37103 21.8708 7.25019 21.025C7.12936 20.5417 6.88769 20.1792 6.52519 19.8167C6.16269 19.6958 6.04186 19.6958 6.04186 19.575C6.04186 19.3333 6.40436 19.3333 6.52519 19.3333C7.25019 19.3333 7.85436 20.1792 8.09603 20.5417C8.70019 21.5083 9.42519 21.75 9.78769 21.75C10.271 21.75 10.6335 21.6292 10.8752 21.5083C10.996 20.6625 11.3585 19.8167 12.0835 19.3333C9.30436 18.7292 7.25019 17.1583 7.25019 14.5C7.25019 13.1708 7.85436 11.8417 8.70019 10.875C8.57936 10.6333 8.45853 10.0292 8.45853 9.18333C8.45853 8.69999 8.45853 7.97499 8.82103 7.24999C8.82103 7.24999 10.5127 7.24999 12.2044 8.82083C12.8085 8.57916 13.6544 8.45833 14.5002 8.45833C15.346 8.45833 16.1919 8.57916 16.9169 8.82083C18.4877 7.24999 20.3002 7.24999 20.3002 7.24999C20.5419 7.97499 20.5419 8.69999 20.5419 9.18333C20.5419 10.15 20.421 10.6333 20.3002 10.875C21.146 11.8417 21.7502 13.05 21.7502 14.5C21.7502 17.1583 19.696 18.7292 16.9169 19.3333C17.6419 19.9375 18.1252 21.025 18.1252 22.1125V25.2542C18.1252 25.6167 18.4877 25.9792 18.971 25.8583C23.4419 24.0458 26.5835 19.6958 26.5835 14.6208C26.5835 7.37083 20.421 1.69166 13.171 2.53749Z" fill="white"/>
</svg>
