<svg width="32" height="32" viewBox="0 0 32 32" fill="none" xmlns="http://www.w3.org/2000/svg">
<g clip-path="url(#clip0_122_1138)">
<path d="M15.9998 0C7.17744 0 0 7.1776 0 16C0 24.8226 7.17744 32 15.9998 32C24.8224 32 31.9997 24.8226 31.9997 16C31.9997 7.1776 24.8224 0 15.9998 0ZM16.1021 5.028C19.3882 5.028 22.0523 8.1736 22.0523 12.0554C22.0523 15.9365 19.3882 19.0832 16.1021 19.0832C12.816 19.0832 10.1522 15.9365 10.1522 12.0554C10.1522 8.1736 12.816 5.028 16.1021 5.028ZM15.9998 30.0576C12.0491 30.0576 8.47376 28.4194 5.91729 25.7864C5.55473 25.4128 5.43984 24.8624 5.62288 24.3752C6.49808 22.0462 8.13776 20.0933 10.2336 18.8134C10.6861 18.537 11.2654 18.5906 11.6592 18.9459C12.8922 20.0592 14.4298 20.7242 16.1019 20.7242C17.7418 20.7242 19.2523 20.084 20.4728 19.0091C20.8709 18.6586 21.4533 18.6125 21.9019 18.8954C23.9334 20.176 25.5208 22.0962 26.3766 24.3758C26.5597 24.8634 26.4446 25.413 26.0819 25.7866C23.5258 28.4194 19.9504 30.0576 15.9998 30.0576Z" fill="#ED4D1B"/>
</g>
<defs>
<clipPath id="clip0_122_1138">
<rect width="32" height="32" fill="white"/>
</clipPath>
</defs>
</svg>
