<svg width="25" height="24" viewBox="0 0 25 24" fill="none" xmlns="http://www.w3.org/2000/svg">
<path d="M20.8046 15.0988C19.5258 15.0988 18.2885 14.9052 17.1344 14.5568C16.7705 14.4407 16.3651 14.5278 16.0843 14.7891L14.452 16.6956C11.5096 15.3891 8.75438 12.9213 7.28838 10.0856L9.31582 8.47913C9.59654 8.20815 9.67972 7.83072 9.56535 7.49199C9.18066 6.41775 8.98311 5.26609 8.98311 4.07572C8.98311 3.55312 8.51524 3.11761 7.9538 3.11761H4.3564C3.79495 3.11761 3.11914 3.34988 3.11914 4.07572C3.11914 13.0664 11.1561 20.5377 20.8046 20.5377C21.5428 20.5377 21.8339 19.928 21.8339 19.3957V16.0569C21.8339 15.5343 21.3661 15.0988 20.8046 15.0988Z" fill="#ED4D1B"/>
</svg>
